<?xml version="1.0" encoding="UTF-8"?>
<svg width="145.96mm" height="47.611mm" version="1.1" viewBox="0 0 145.96 47.611" xmlns="http://www.w3.org/2000/svg">
 <g transform="translate(-30.473 -98.945)" stroke-width=".26458">
  <g fill="#303030" style="mix-blend-mode:normal" aria-label="YAPVE">
   <path d="m46.157 136.68v-12.751l-11.684-20.98h8.2296l7.112 13.716 6.5532-13.716h8.128l-11.278 21.082v12.649z"/>
   <path d="m73.436 110.51h-0.0508l-4.318 13.411h8.5852zm8.382 26.162-2.1336-6.9596h-12.446l-2.3876 6.9596h-7.4676l12.04-33.731h8.1788l11.887 33.731z"/>
   <path d="m104.83 118.69q3.048 0 4.3688-1.3716 1.3716-1.4224 1.3716-3.6576 0-2.1336-1.3716-3.5052-1.3208-1.3716-4.3688-1.3716h-6.7056v9.906zm-13.767 17.983v-33.731h14.884q2.4892 0 4.4704 0.8636 1.9812 0.8128 3.4036 2.3368 1.4224 1.4732 2.1844 3.4544t0.762 4.2672-0.762 4.2672q-0.762 1.9304-2.1844 3.3528-1.4224 1.3716-3.4036 2.1844-1.9812 0.762-4.4704 0.762h-7.8232v12.243z"/>
   <path d="m127.03 136.68-11.43-33.731h7.5184l7.366 23.673 7.3152-23.673h7.3152l-11.43 33.731z"/>
   <path d="m146.74 136.68v-33.731h24.79v5.8928h-17.932v7.2136h16.51v5.9436h-16.51v8.6868h18.745v5.9944z"/>
  </g>
  <rect x="46.074" y="137.99" width="126.36" height="4.5618" fill="#303030"/>
  <g fill="#fff" aria-label="YET ANOTHER POLITICAL VALUES ENGINE">
   <path d="m47.82 141.9v-1.2397l-1.1359-2.0398h0.8001l0.69144 1.3335 0.63712-1.3335h0.79022l-1.0964 2.0496v1.2298z"/>
   <path d="m50.883 141.9v-3.2794h2.4102v0.57291h-1.7434v0.70133h1.6051v0.57785h-1.6051v0.84455h1.8225v0.58278z"/>
   <path d="m55.532 141.9v-2.7065h-0.98778v-0.57291h2.667v0.57291h-0.99272v2.7065z"/>
   <path d="m62.28 139.35h-0.0049l-0.4198 1.3039h0.83467zm0.81492 2.5435-0.20743-0.67662h-1.21l-0.23213 0.67662h-0.72602l1.1705-3.2794h0.79516l1.1557 3.2794z"/>
   <path d="m67.161 141.9-1.4026-2.2027v2.2027h-0.63712v-3.2794h0.72602l1.3039 2.1089v-2.1089h0.64206v3.2794z"/>
   <path d="m70.703 141.42q0.18274 0 0.34572-0.0642 0.16298-0.0692 0.28152-0.2025 0.12347-0.13829 0.19262-0.35066 0.06914-0.21237 0.06914-0.50377 0-0.58279-0.22719-0.88406t-0.66181-0.30127-0.66675 0.30127-0.23213 0.88406 0.23213 0.85443q0.23707 0.2667 0.66675 0.2667zm0 0.58773q-0.76059 0-1.1705-0.4445-0.40499-0.4445-0.40499-1.2792 0-0.41487 0.10372-0.74578 0.10372-0.3309 0.30621-0.55809 0.2025-0.23213 0.49389-0.35066 0.2914-0.12347 0.67169-0.12347 0.37536 0 0.66675 0.12347 0.29633 0.11853 0.49389 0.35066 0.19756 0.23213 0.30127 0.56797 0.10372 0.33091 0.10372 0.75071 0 0.84949-0.40499 1.2792-0.40005 0.42968-1.1606 0.42968z"/>
   <path d="m74.196 141.9v-2.7065h-0.98778v-0.57291h2.667v0.57291h-0.99272v2.7065z"/>
   <path d="m79.131 141.9v-1.4718h-1.2792v1.4718h-0.68651v-3.2794h0.68651v1.2347h1.2792v-1.2347h0.69144v3.2794z"/>
   <path d="m81.192 141.9v-3.2794h2.4102v0.57291h-1.7434v0.70133h1.6051v0.57785h-1.6051v0.84455h1.8224v0.58278z"/>
   <path d="m85.613 139.19v0.87419h0.85937q0.27658 0 0.39017-0.12347 0.11359-0.12348 0.11359-0.31116 0-0.19261-0.11359-0.31608-0.10866-0.12348-0.36548-0.12348zm1.2446 2.7114v-0.84455q0-0.23706-0.10866-0.33584-0.10866-0.10372-0.40499-0.10372h-0.73096v1.2841h-0.66675v-3.2794h1.6644q0.22719 0 0.40993 0.0741 0.18768 0.0692 0.32103 0.19756 0.13335 0.12347 0.20249 0.30127 0.07408 0.17286 0.07408 0.37536 0 0.2667-0.12841 0.47413-0.12347 0.2025-0.36054 0.28646 0.21731 0.0691 0.30621 0.21237 0.09384 0.14323 0.09384 0.42968v0.92851z"/>
   <path d="m92.584 140.15q0.29633 0 0.42474-0.13335 0.13335-0.13829 0.13335-0.3556 0-0.20744-0.13335-0.34079-0.12841-0.13335-0.42474-0.13335h-0.65193v0.96309zm-1.3384 1.7484v-3.2794h1.4471q0.24201 0 0.43462 0.084 0.19262 0.079 0.33091 0.22719 0.13829 0.14323 0.21237 0.33585 0.07408 0.19261 0.07408 0.41486t-0.07408 0.41487q-0.07408 0.18768-0.21237 0.32597-0.13829 0.13335-0.33091 0.21237-0.19262 0.0741-0.43462 0.0741h-0.76059v1.1903z"/>
   <path d="m96.546 141.42q0.18274 0 0.34572-0.0642 0.16298-0.0692 0.28152-0.2025 0.12347-0.13829 0.19262-0.35066 0.06914-0.21237 0.06914-0.50377 0-0.58279-0.22719-0.88406t-0.66181-0.30127-0.66675 0.30127-0.23213 0.88406 0.23213 0.85443q0.23707 0.2667 0.66675 0.2667zm0 0.58773q-0.76059 0-1.1705-0.4445-0.40499-0.4445-0.40499-1.2792 0-0.41487 0.10372-0.74578 0.10372-0.3309 0.30621-0.55809 0.2025-0.23213 0.49389-0.35066 0.2914-0.12347 0.67169-0.12347 0.37536 0 0.66675 0.12347 0.29633 0.11853 0.49389 0.35066 0.19756 0.23213 0.30127 0.56797 0.10372 0.33091 0.10372 0.75071 0 0.84949-0.40499 1.2792-0.40005 0.42968-1.1606 0.42968z"/>
   <path d="m99.446 141.9v-3.2794h0.6865v2.6818h1.6249v0.5976z"/>
   <path d="m103.05 141.9v-3.2794h0.68651v3.2794z"/>
   <path d="m105.99 141.9v-2.7065h-0.98778v-0.57291h2.667v0.57291h-0.99271v2.7065z"/>
   <path d="m108.96 141.9v-3.2794h0.68651v3.2794z"/>
   <path d="m113.9 140.77q-0.0543 0.28151-0.17286 0.5087-0.11853 0.22719-0.30127 0.39018-0.1778 0.16298-0.41487 0.25188-0.23706 0.0889-0.52352 0.0889-0.32103 0-0.60254-0.10866-0.27658-0.10865-0.47908-0.32596-0.20249-0.21731-0.32103-0.5334-0.11359-0.32103-0.11359-0.74578 0-0.41486 0.10372-0.74577 0.10865-0.33584 0.30621-0.56303 0.19755-0.23213 0.47907-0.3556 0.28646-0.12347 0.63712-0.12347 0.30621 0 0.55315 0.0938 0.25189 0.0889 0.42969 0.25189 0.18274 0.15804 0.28645 0.37535 0.10866 0.21731 0.13335 0.46426h-0.6865q-0.0691-0.28152-0.2667-0.43462-0.19756-0.15805-0.4445-0.15805-0.42969 0-0.63218 0.31115-0.2025 0.30621-0.2025 0.84455 0 0.54822 0.19756 0.85443 0.20249 0.30127 0.60254 0.30127 0.30622 0 0.48895-0.16298 0.18768-0.16792 0.25683-0.47907z"/>
   <path d="m116.41 139.35h-5e-3l-0.4198 1.3039h0.83467zm0.81492 2.5435-0.20743-0.67662h-1.21l-0.23213 0.67662h-0.72602l1.1705-3.2794h0.79516l1.1557 3.2794z"/>
   <path d="m119.25 141.9v-3.2794h0.68651v2.6818h1.6249v0.5976z"/>
   <path d="m126.18 141.9-1.1112-3.2794h0.73096l0.71614 2.3015 0.7112-2.3015h0.7112l-1.1112 3.2794z"/>
   <path d="m129.82 139.35h-5e-3l-0.4198 1.3039h0.83467zm0.81492 2.5435-0.20744-0.67662h-1.21l-0.23213 0.67662h-0.72602l1.1705-3.2794h0.79516l1.1557 3.2794z"/>
   <path d="m132.66 141.9v-3.2794h0.68651v2.6818h1.6249v0.5976z"/>
   <path d="m138.07 138.62h0.70132v2.1879q0 0.59761-0.35066 0.90382-0.35066 0.30127-0.99766 0.30127-0.5976 0-0.94826-0.28646-0.34572-0.28645-0.34572-0.87912v-2.2274h0.69638v2.1632q0 0.30621 0.1531 0.48401 0.15311 0.1778 0.43463 0.1778 0.65687 0 0.65687-0.63712z"/>
   <path d="m140.15 141.9v-3.2794h2.4102v0.57291h-1.7434v0.70133h1.6051v0.57785h-1.6051v0.84455h1.8224v0.58278z"/>
   <path d="m145.76 139.59q-0.0247-0.25188-0.18274-0.37535t-0.46919-0.12347q-0.2914 0-0.43956 0.0988-0.14817 0.0988-0.14817 0.28646 0 0.15804 0.11359 0.25188 0.11854 0.0938 0.39511 0.16299 0.28152 0.0691 0.5334 0.13829 0.25683 0.0642 0.43957 0.14816 0.10865 0.0494 0.20249 0.1136 0.0938 0.0642 0.16298 0.15804 0.0692 0.0938 0.10866 0.22225 0.0395 0.12841 0.0395 0.30127 0 0.27164-0.0988 0.4692-0.0938 0.19261-0.27164 0.32103-0.17286 0.12841-0.41486 0.18767-0.23707 0.0642-0.52353 0.0642-0.30621 0-0.55809-0.0691-0.25188-0.0642-0.43462-0.20249t-0.28646-0.34078q-0.10371-0.20744-0.10865-0.48401h0.66181q0.01 0.25188 0.20249 0.40005 0.19756 0.14322 0.52846 0.14322 0.30621 0 0.4692-0.11853 0.16792-0.12347 0.16792-0.34572 0-0.0741-0.0247-0.13335-0.0198-0.0593-0.079-0.10866-0.0543-0.0543-0.1531-0.0938-0.0988-0.0445-0.25189-0.079-0.30621-0.0691-0.51858-0.11853-0.20743-0.0543-0.38029-0.13335-0.2667-0.11854-0.40993-0.30621-0.13829-0.19262-0.13829-0.50377 0-0.22225 0.0741-0.40499 0.0741-0.18768 0.22225-0.32103 0.15311-0.13335 0.37536-0.20743 0.22719-0.0741 0.52846-0.0741 0.31115 0 0.55316 0.079 0.242 0.079 0.40498 0.22225 0.16793 0.14323 0.25683 0.34078 0.0938 0.19756 0.10371 0.43462z"/>
   <path d="m150.13 141.9v-3.2794h2.4102v0.57291h-1.7434v0.70133h1.6051v0.57785h-1.6051v0.84455h1.8224v0.58278z"/>
   <path d="m155.92 141.9-1.4026-2.2027v2.2027h-0.63712v-3.2794h0.72602l1.3039 2.1089v-2.1089h0.64205v3.2794z"/>
   <path d="m160.37 141.9-0.0148-0.32596q-0.11853 0.20743-0.38029 0.32596-0.26177 0.1136-0.60255 0.1136t-0.61736-0.14323q-0.27164-0.14817-0.46919-0.39017-0.19262-0.24695-0.29634-0.56303-0.10371-0.32103-0.10371-0.66182 0-0.36053 0.10371-0.67662 0.10372-0.32103 0.30621-0.5581 0.2025-0.23707 0.50377-0.37042 0.30127-0.13828 0.70132-0.13828 0.2914 0 0.54328 0.084 0.25682 0.084 0.4445 0.23212 0.19262 0.14817 0.30621 0.3556 0.11854 0.2025 0.13829 0.44944h-0.69144q-0.0148-0.11359-0.079-0.21237-0.0642-0.10372-0.16298-0.1778-0.0988-0.0741-0.23213-0.11853-0.12841-0.0445-0.2667-0.0445-0.41486 0-0.66675 0.31115-0.24694 0.30621-0.24694 0.89394 0 0.20249 0.0494 0.40993 0.0543 0.20249 0.16298 0.37041 0.11359 0.16299 0.28646 0.2667 0.17286 0.10372 0.40992 0.10372 0.16793 0 0.31115-0.0593 0.14817-0.0593 0.25683-0.16298 0.10865-0.10372 0.16792-0.23707 0.0642-0.13829 0.0642-0.29139h-0.72601v-0.54822h1.3681v1.7632z"/>
   <path d="m162.3 141.9v-3.2794h0.68651v3.2794z"/>
   <path d="m166.39 141.9-1.4026-2.2027v2.2027h-0.63712v-3.2794h0.72602l1.3039 2.1089v-2.1089h0.64205v3.2794z"/>
   <path d="m168.4 141.9v-3.2794h2.4102v0.57291h-1.7434v0.70133h1.6051v0.57785h-1.6051v0.84455h1.8224v0.58278z"/>
  </g>
 </g>
</svg>
